<svg preserveAspectRatio="none" width="100%" height="100%" overflow="visible" style="display: block;" viewBox="0 0 1170 233" fill="none" xmlns="http://www.w3.org/2000/svg">
<g id="Logo" clip-path="url(#clip0_0_206)">
<path id="Vector" d="M179.246 227.908H142.758L132.29 189.074C120.556 147.69 112.621 140.056 87.2434 140.056H35.8455V227.908H0V5.09245H92.0022C133.249 5.09245 172.903 29.6016 172.903 72.2565C172.903 99.3164 155.451 116.182 131.023 124.779C151.009 136.234 159.577 156.613 166.552 181.758L179.246 227.908ZM35.8455 107.586H88.51C117.063 107.586 135.466 94.5326 135.466 72.2565C135.466 49.9804 115.797 37.5625 91.6856 37.5625H35.8455V107.586Z" fill="var(--fill-0, #030303)"/>
<path id="Vector_2" d="M178.296 116.5C178.296 42.0195 225.559 0 287.424 0C349.29 0 396.246 42.0195 396.246 116.5C396.246 190.98 348.973 233 287.424 233C225.876 233 178.287 190.98 178.287 116.5H178.296ZM358.808 116.5C358.808 59.5208 326.762 32.47 287.424 31.8346C247.77 31.1992 215.724 59.5299 215.724 116.5C215.724 173.47 247.77 202.128 287.424 201.81C326.762 201.492 358.808 173.161 358.808 116.5Z" fill="var(--fill-0, #030303)"/>
<path id="Vector_3" d="M407.971 116.5C407.971 42.0195 455.243 0 517.109 0C578.974 0 625.93 42.0195 625.93 116.5C625.93 190.98 578.658 233 517.109 233C455.56 233 407.971 190.98 407.971 116.5ZM588.492 116.5C588.492 59.5208 556.447 32.47 517.109 31.8346C477.454 31.1992 445.409 59.5299 445.409 116.5C445.409 173.47 477.454 202.128 517.109 201.81C556.447 201.492 588.492 173.161 588.492 116.5Z" fill="var(--fill-0, #030303)"/>
<path id="Vector_4" d="M703.013 131.46L677.002 161.697V227.908H641.157V5.09245H677.002V113.949L763.92 5.09245H811.509L727.441 103.129L816.91 227.908H772.497L703.022 131.46H703.013Z" fill="var(--fill-0, #030303)"/>
<path id="Vector_5" d="M824.836 5.09245H979.337V37.5625H861.007V101.223H966.969V133.693H861.007V195.447H979.662V227.917H824.845V5.09245H824.836Z" fill="var(--fill-0, #030303)"/>
<path id="Vector_6" d="M1170 227.908H1133.51L1123.04 189.074C1111.31 147.69 1103.38 140.056 1078 140.056H1026.6V227.908H990.754V5.09245H1082.76C1124 5.09245 1163.66 29.6016 1163.66 72.2565C1163.66 99.3164 1146.21 116.182 1121.78 124.779C1141.76 136.234 1150.33 156.613 1157.31 181.758L1170 227.908ZM1026.6 107.586H1079.26C1107.82 107.586 1126.22 94.5326 1126.22 72.2565C1126.22 49.9804 1106.55 37.5625 1082.44 37.5625H1026.6V107.586Z" fill="var(--fill-0, #030303)"/>
</g>
<defs>
<clipPath id="clip0_0_206">
<rect width="1170" height="233" fill="white"/>
</clipPath>
</defs>
</svg>
